<svg xmlns="http://www.w3.org/2000/svg" width="960" height="512" viewBox="0 0 960 512">
  <g transform="translate(0.5,0.5)" text-anchor="middle" font-size="14" font-family="Times" font-weight="normal">
    <g transform="translate(4,469)">
      <g stroke="black" stroke-width="1" stroke-linecap="round">
        <line x2="951"/>
        <line y2="39"/>
        <line x2="951" y1="39" y2="39"/>
        <line x1="951" x2="951" y2="39"/>
        <line x1="892" x2="892" y2="4"/>
        <line x1="892" x2="892" y1="39" y2="35"/>
        <line x1="832" x2="832" y2="4"/>
        <line x1="832" x2="832" y1="39" y2="35"/>
        <line x1="773" x2="773" y2="4"/>
        <line x1="773" x2="773" y1="39" y2="35"/>
        <line x1="713" x2="713" y2="4"/>
        <line x1="713" x2="713" y1="39" y2="35"/>
        <line x1="654" x2="654" y2="4"/>
        <line x1="654" x2="654" y1="39" y2="35"/>
        <line x1="594" x2="594" y2="39"/>
        <line x1="535" x2="535" y2="4"/>
        <line x1="535" x2="535" y1="39" y2="35"/>
        <line x1="476" x2="476" y2="4"/>
        <line x1="476" x2="476" y1="39" y2="35"/>
        <line x1="416" x2="416" y2="4"/>
        <line x1="416" x2="416" y1="39" y2="35"/>
        <line x1="357" x2="357" y2="39"/>
        <line x1="297" x2="297" y2="4"/>
        <line x1="297" x2="297" y1="39" y2="35"/>
        <line x1="238" x2="238" y2="39"/>
        <line x1="178" x2="178" y2="4"/>
        <line x1="178" x2="178" y1="39" y2="35"/>
        <line x1="119" x2="119" y2="4"/>
        <line x1="119" x2="119" y1="39" y2="35"/>
        <line x1="59" x2="59" y2="4"/>
        <line x1="59" x2="59" y1="39" y2="35"/>
      </g>
      <g>
        <g>
          <rect x="594" width="357" height="39" field="insn_opcode" style="fill-opacity:0.1;fill:#ff0000"/>
          <rect x="357" width="238" height="39" field="insn_number" style="fill-opacity:0.1;fill:#aaff00"/>
          <rect x="238" width="119" height="39" field="load_insns" style="fill-opacity:0.1;fill:#00ffd5"/>
          <rect width="238" height="39" field="ddr_addr" style="fill-opacity:0.1;fill:#ffbf00"/>
        </g>
        <g transform="translate(30,-11)">
          <g transform="translate(892)">
            <text y="6">0</text>
          </g>
          <g transform="translate(594)">
            <text y="6">5</text>
          </g>
          <g transform="translate(535)">
            <text y="6">6</text>
          </g>
          <g transform="translate(357)">
            <text y="6">9</text>
          </g>
          <g transform="translate(297)">
            <text y="6">10</text>
          </g>
          <g transform="translate(238)">
            <text y="6">11</text>
          </g>
          <g transform="translate(178)">
            <text y="6">12</text>
          </g>
          <g transform="translate(0)">
            <text y="6">15</text>
          </g>
        </g>
        <g transform="translate(30,19)">
          <g transform="translate(743)">
            <text y="6">
              <tspan>insn_opcode</tspan>
            </text>
          </g>
          <g transform="translate(446)">
            <text y="6">
              <tspan>insn_number</tspan>
            </text>
          </g>
          <g transform="translate(267)">
            <text y="6">
              <tspan>load_insns</tspan>
            </text>
          </g>
          <g transform="translate(89)">
            <text y="6">
              <tspan>ddr_addr</tspan>
            </text>
          </g>
        </g>
        <g transform="translate(30,47)"/>
      </g>
    </g>
    <g transform="translate(4,405)">
      <g stroke="black" stroke-width="1" stroke-linecap="round">
        <line x2="951"/>
        <line y2="39"/>
        <line x2="951" y1="39" y2="39"/>
        <line x1="951" x2="951" y2="39"/>
        <line x1="892" x2="892" y2="4"/>
        <line x1="892" x2="892" y1="39" y2="35"/>
        <line x1="832" x2="832" y2="4"/>
        <line x1="832" x2="832" y1="39" y2="35"/>
        <line x1="773" x2="773" y2="4"/>
        <line x1="773" x2="773" y1="39" y2="35"/>
        <line x1="713" x2="713" y2="4"/>
        <line x1="713" x2="713" y1="39" y2="35"/>
        <line x1="654" x2="654" y2="4"/>
        <line x1="654" x2="654" y1="39" y2="35"/>
        <line x1="594" x2="594" y2="4"/>
        <line x1="594" x2="594" y1="39" y2="35"/>
        <line x1="535" x2="535" y2="4"/>
        <line x1="535" x2="535" y1="39" y2="35"/>
        <line x1="476" x2="476" y2="4"/>
        <line x1="476" x2="476" y1="39" y2="35"/>
        <line x1="416" x2="416" y2="4"/>
        <line x1="416" x2="416" y1="39" y2="35"/>
        <line x1="357" x2="357" y2="4"/>
        <line x1="357" x2="357" y1="39" y2="35"/>
        <line x1="297" x2="297" y2="4"/>
        <line x1="297" x2="297" y1="39" y2="35"/>
        <line x1="238" x2="238" y2="4"/>
        <line x1="238" x2="238" y1="39" y2="35"/>
        <line x1="178" x2="178" y2="4"/>
        <line x1="178" x2="178" y1="39" y2="35"/>
        <line x1="119" x2="119" y2="4"/>
        <line x1="119" x2="119" y1="39" y2="35"/>
        <line x1="59" x2="59" y2="4"/>
        <line x1="59" x2="59" y1="39" y2="35"/>
      </g>
      <g>
        <g>
          <rect width="951" height="39" field="ddr_addr" style="fill-opacity:0.1;fill:#ffbf00"/>
        </g>
        <g transform="translate(30,-11)">
          <g transform="translate(892)">
            <text y="6">16</text>
          </g>
          <g transform="translate(0)">
            <text y="6">31</text>
          </g>
        </g>
        <g transform="translate(30,19)">
          <g transform="translate(446)">
            <text y="6">
              <tspan>ddr_addr</tspan>
            </text>
          </g>
        </g>
        <g transform="translate(30,47)"/>
      </g>
    </g>
    <g transform="translate(4,341)">
      <g stroke="black" stroke-width="1" stroke-linecap="round">
        <line x2="951"/>
        <line y2="39"/>
        <line x2="951" y1="39" y2="39"/>
        <line x1="951" x2="951" y2="39"/>
        <line x1="892" x2="892" y2="4"/>
        <line x1="892" x2="892" y1="39" y2="35"/>
        <line x1="832" x2="832" y2="4"/>
        <line x1="832" x2="832" y1="39" y2="35"/>
        <line x1="773" x2="773" y2="4"/>
        <line x1="773" x2="773" y1="39" y2="35"/>
        <line x1="713" x2="713" y2="4"/>
        <line x1="713" x2="713" y1="39" y2="35"/>
        <line x1="654" x2="654" y2="4"/>
        <line x1="654" x2="654" y1="39" y2="35"/>
        <line x1="594" x2="594" y2="4"/>
        <line x1="594" x2="594" y1="39" y2="35"/>
        <line x1="535" x2="535" y2="4"/>
        <line x1="535" x2="535" y1="39" y2="35"/>
        <line x1="476" x2="476" y2="4"/>
        <line x1="476" x2="476" y1="39" y2="35"/>
        <line x1="416" x2="416" y2="4"/>
        <line x1="416" x2="416" y1="39" y2="35"/>
        <line x1="357" x2="357" y2="4"/>
        <line x1="357" x2="357" y1="39" y2="35"/>
        <line x1="297" x2="297" y2="4"/>
        <line x1="297" x2="297" y1="39" y2="35"/>
        <line x1="238" x2="238" y2="4"/>
        <line x1="238" x2="238" y1="39" y2="35"/>
        <line x1="178" x2="178" y2="4"/>
        <line x1="178" x2="178" y1="39" y2="35"/>
        <line x1="119" x2="119" y2="4"/>
        <line x1="119" x2="119" y1="39" y2="35"/>
        <line x1="59" x2="59" y2="4"/>
        <line x1="59" x2="59" y1="39" y2="35"/>
      </g>
      <g>
        <g>
          <rect width="951" height="39" field="ddr_addr" style="fill-opacity:0.1;fill:#ffbf00"/>
        </g>
        <g transform="translate(30,-11)">
          <g transform="translate(892)">
            <text y="6">32</text>
          </g>
          <g transform="translate(0)">
            <text y="6">47</text>
          </g>
        </g>
        <g transform="translate(30,19)">
          <g transform="translate(446)">
            <text y="6">
              <tspan>ddr_addr</tspan>
            </text>
          </g>
        </g>
        <g transform="translate(30,47)"/>
      </g>
    </g>
    <g transform="translate(4,277)">
      <g stroke="black" stroke-width="1" stroke-linecap="round">
        <line x2="951"/>
        <line y2="39"/>
        <line x2="951" y1="39" y2="39"/>
        <line x1="951" x2="951" y2="39"/>
        <line x1="892" x2="892" y2="4"/>
        <line x1="892" x2="892" y1="39" y2="35"/>
        <line x1="832" x2="832" y2="39"/>
        <line x1="773" x2="773" y2="4"/>
        <line x1="773" x2="773" y1="39" y2="35"/>
        <line x1="713" x2="713" y2="4"/>
        <line x1="713" x2="713" y1="39" y2="35"/>
        <line x1="654" x2="654" y2="4"/>
        <line x1="654" x2="654" y1="39" y2="35"/>
        <line x1="594" x2="594" y2="4"/>
        <line x1="594" x2="594" y1="39" y2="35"/>
        <line x1="535" x2="535" y2="4"/>
        <line x1="535" x2="535" y1="39" y2="35"/>
        <line x1="476" x2="476" y2="4"/>
        <line x1="476" x2="476" y1="39" y2="35"/>
        <line x1="416" x2="416" y2="4"/>
        <line x1="416" x2="416" y1="39" y2="35"/>
        <line x1="357" x2="357" y2="4"/>
        <line x1="357" x2="357" y1="39" y2="35"/>
        <line x1="297" x2="297" y2="39"/>
        <line x1="238" x2="238" y2="4"/>
        <line x1="238" x2="238" y1="39" y2="35"/>
        <line x1="178" x2="178" y2="4"/>
        <line x1="178" x2="178" y1="39" y2="35"/>
        <line x1="119" x2="119" y2="39"/>
        <line x1="59" x2="59" y2="4"/>
        <line x1="59" x2="59" y1="39" y2="35"/>
      </g>
      <g>
        <g>
          <rect x="832" width="119" height="39" field="ddr_addr" style="fill-opacity:0.1;fill:#ffbf00"/>
          <rect x="297" width="535" height="39" field="sequ_burst_0" style="fill-opacity:0.1;fill:#00ff19"/>
          <rect x="119" width="178" height="39" field="hop_offset_1_exp" style="fill-opacity:0.1;fill:#006aff"/>
          <rect width="119" height="39" field="hop_offset_1_fra" style="fill-opacity:0.1;fill:#ff00ff"/>
        </g>
        <g transform="translate(30,-11)">
          <g transform="translate(892)">
            <text y="6">48</text>
          </g>
          <g transform="translate(832)">
            <text y="6">49</text>
          </g>
          <g transform="translate(773)">
            <text y="6">50</text>
          </g>
          <g transform="translate(297)">
            <text y="6">58</text>
          </g>
          <g transform="translate(238)">
            <text y="6">59</text>
          </g>
          <g transform="translate(119)">
            <text y="6">61</text>
          </g>
          <g transform="translate(59)">
            <text y="6">62</text>
          </g>
          <g transform="translate(0)">
            <text y="6">63</text>
          </g>
        </g>
        <g transform="translate(30,19)">
          <g transform="translate(862)">
            <text y="6">
              <tspan>ddr_addr</tspan>
            </text>
          </g>
          <g transform="translate(535)">
            <text y="6">
              <tspan>sequ_burst_0</tspan>
            </text>
          </g>
          <g transform="translate(178)">
            <text y="6">
              <tspan>hop_offset_1_exp</tspan>
            </text>
          </g>
          <g transform="translate(30)">
            <text y="6">
              <tspan>hop_offset_1_fra</tspan>
            </text>
          </g>
        </g>
        <g transform="translate(30,47)"/>
      </g>
    </g>
    <g transform="translate(4,213)">
      <g stroke="black" stroke-width="1" stroke-linecap="round">
        <line x2="951"/>
        <line y2="39"/>
        <line x2="951" y1="39" y2="39"/>
        <line x1="951" x2="951" y2="39"/>
        <line x1="892" x2="892" y2="4"/>
        <line x1="892" x2="892" y1="39" y2="35"/>
        <line x1="832" x2="832" y2="4"/>
        <line x1="832" x2="832" y1="39" y2="35"/>
        <line x1="773" x2="773" y2="4"/>
        <line x1="773" x2="773" y1="39" y2="35"/>
        <line x1="713" x2="713" y2="4"/>
        <line x1="713" x2="713" y1="39" y2="35"/>
        <line x1="654" x2="654" y2="4"/>
        <line x1="654" x2="654" y1="39" y2="35"/>
        <line x1="594" x2="594" y2="39"/>
        <line x1="535" x2="535" y2="4"/>
        <line x1="535" x2="535" y1="39" y2="35"/>
        <line x1="476" x2="476" y2="4"/>
        <line x1="476" x2="476" y1="39" y2="35"/>
        <line x1="416" x2="416" y2="4"/>
        <line x1="416" x2="416" y1="39" y2="35"/>
        <line x1="357" x2="357" y2="4"/>
        <line x1="357" x2="357" y1="39" y2="35"/>
        <line x1="297" x2="297" y2="39"/>
        <line x1="238" x2="238" y2="4"/>
        <line x1="238" x2="238" y1="39" y2="35"/>
        <line x1="178" x2="178" y2="4"/>
        <line x1="178" x2="178" y1="39" y2="35"/>
        <line x1="119" x2="119" y2="4"/>
        <line x1="119" x2="119" y1="39" y2="35"/>
        <line x1="59" x2="59" y2="39"/>
      </g>
      <g>
        <g>
          <rect x="594" width="357" height="39" field="hop_offset_1_fra" style="fill-opacity:0.1;fill:#ff00ff"/>
          <rect x="297" width="297" height="39" field="sequ_burst_1" style="fill-opacity:0.1;fill:#00ffea"/>
          <rect x="59" width="238" height="39" field="hop_offset_2_exp" style="fill-opacity:0.1;fill:#ff00bf"/>
          <rect width="59" height="39" field="hop_offset_2_fra" style="fill-opacity:0.1;fill:#00ff80"/>
        </g>
        <g transform="translate(30,-11)">
          <g transform="translate(892)">
            <text y="6">64</text>
          </g>
          <g transform="translate(594)">
            <text y="6">69</text>
          </g>
          <g transform="translate(535)">
            <text y="6">70</text>
          </g>
          <g transform="translate(297)">
            <text y="6">74</text>
          </g>
          <g transform="translate(238)">
            <text y="6">75</text>
          </g>
          <g transform="translate(59)">
            <text y="6">78</text>
          </g>
          <g transform="translate(0)">
            <text y="6">79</text>
          </g>
        </g>
        <g transform="translate(30,19)">
          <g transform="translate(743)">
            <text y="6">
              <tspan>hop_offset_1_fra</tspan>
            </text>
          </g>
          <g transform="translate(416)">
            <text y="6">
              <tspan>sequ_burst_1</tspan>
            </text>
          </g>
          <g transform="translate(149)">
            <text y="6">
              <tspan>hop_offset_2_exp</tspan>
            </text>
          </g>
          <g transform="translate(0)">
            <text y="6">
              <tspan>hop_offset_2_fra</tspan>
            </text>
          </g>
        </g>
        <g transform="translate(30,47)"/>
      </g>
    </g>
    <g transform="translate(4,149)">
      <g stroke="black" stroke-width="1" stroke-linecap="round">
        <line x2="951"/>
        <line y2="39"/>
        <line x2="951" y1="39" y2="39"/>
        <line x1="951" x2="951" y2="39"/>
        <line x1="892" x2="892" y2="4"/>
        <line x1="892" x2="892" y1="39" y2="35"/>
        <line x1="832" x2="832" y2="4"/>
        <line x1="832" x2="832" y1="39" y2="35"/>
        <line x1="773" x2="773" y2="4"/>
        <line x1="773" x2="773" y1="39" y2="35"/>
        <line x1="713" x2="713" y2="4"/>
        <line x1="713" x2="713" y1="39" y2="35"/>
        <line x1="654" x2="654" y2="4"/>
        <line x1="654" x2="654" y1="39" y2="35"/>
        <line x1="594" x2="594" y2="4"/>
        <line x1="594" x2="594" y1="39" y2="35"/>
        <line x1="535" x2="535" y2="39"/>
        <line x1="476" x2="476" y2="4"/>
        <line x1="476" x2="476" y1="39" y2="35"/>
        <line x1="416" x2="416" y2="4"/>
        <line x1="416" x2="416" y1="39" y2="35"/>
        <line x1="357" x2="357" y2="4"/>
        <line x1="357" x2="357" y1="39" y2="35"/>
        <line x1="297" x2="297" y2="39"/>
        <line x1="238" x2="238" y2="4"/>
        <line x1="238" x2="238" y1="39" y2="35"/>
        <line x1="178" x2="178" y2="4"/>
        <line x1="178" x2="178" y1="39" y2="35"/>
        <line x1="119" x2="119" y2="4"/>
        <line x1="119" x2="119" y1="39" y2="35"/>
        <line x1="59" x2="59" y2="4"/>
        <line x1="59" x2="59" y1="39" y2="35"/>
      </g>
      <g>
        <g>
          <rect x="535" width="416" height="39" field="hop_offset_2_fra" style="fill-opacity:0.1;fill:#00ff80"/>
          <rect x="297" width="238" height="39" field="sequ_burst_2" style="fill-opacity:0.1;fill:#ff0059"/>
          <rect width="297" height="39" field="hop_offset_3_exp" style="fill-opacity:0.1;fill:#00ff40"/>
        </g>
        <g transform="translate(30,-11)">
          <g transform="translate(892)">
            <text y="6">80</text>
          </g>
          <g transform="translate(535)">
            <text y="6">86</text>
          </g>
          <g transform="translate(476)">
            <text y="6">87</text>
          </g>
          <g transform="translate(297)">
            <text y="6">90</text>
          </g>
          <g transform="translate(238)">
            <text y="6">91</text>
          </g>
          <g transform="translate(0)">
            <text y="6">95</text>
          </g>
        </g>
        <g transform="translate(30,19)">
          <g transform="translate(713)">
            <text y="6">
              <tspan>hop_offset_2_fra</tspan>
            </text>
          </g>
          <g transform="translate(386)">
            <text y="6">
              <tspan>sequ_burst_2</tspan>
            </text>
          </g>
          <g transform="translate(119)">
            <text y="6">
              <tspan>hop_offset_3_exp</tspan>
            </text>
          </g>
        </g>
        <g transform="translate(30,47)"/>
      </g>
    </g>
    <g transform="translate(4,85)">
      <g stroke="black" stroke-width="1" stroke-linecap="round">
        <line x2="951"/>
        <line y2="39"/>
        <line x2="951" y1="39" y2="39"/>
        <line x1="951" x2="951" y2="39"/>
        <line x1="892" x2="892" y2="4"/>
        <line x1="892" x2="892" y1="39" y2="35"/>
        <line x1="832" x2="832" y2="4"/>
        <line x1="832" x2="832" y1="39" y2="35"/>
        <line x1="773" x2="773" y2="4"/>
        <line x1="773" x2="773" y1="39" y2="35"/>
        <line x1="713" x2="713" y2="4"/>
        <line x1="713" x2="713" y1="39" y2="35"/>
        <line x1="654" x2="654" y2="4"/>
        <line x1="654" x2="654" y1="39" y2="35"/>
        <line x1="594" x2="594" y2="4"/>
        <line x1="594" x2="594" y1="39" y2="35"/>
        <line x1="535" x2="535" y2="4"/>
        <line x1="535" x2="535" y1="39" y2="35"/>
        <line x1="476" x2="476" y2="39"/>
        <line x1="416" x2="416" y2="4"/>
        <line x1="416" x2="416" y1="39" y2="35"/>
        <line x1="357" x2="357" y2="4"/>
        <line x1="357" x2="357" y1="39" y2="35"/>
        <line x1="297" x2="297" y2="39"/>
        <line x1="238" x2="238" y2="4"/>
        <line x1="238" x2="238" y1="39" y2="35"/>
        <line x1="178" x2="178" y2="4"/>
        <line x1="178" x2="178" y1="39" y2="35"/>
        <line x1="119" x2="119" y2="4"/>
        <line x1="119" x2="119" y1="39" y2="35"/>
        <line x1="59" x2="59" y2="4"/>
        <line x1="59" x2="59" y1="39" y2="35"/>
      </g>
      <g>
        <g>
          <rect x="476" width="476" height="39" field="hop_offset_3_fra" style="fill-opacity:0.1;fill:#ff0020"/>
          <rect x="297" width="178" height="39" field="sequ_burst_3" style="fill-opacity:0.1;fill:#00ff20"/>
          <rect width="297" height="39" field="sram_addr" style="fill-opacity:0.1;fill:#ff0010"/>
        </g>
        <g transform="translate(30,-11)">
          <g transform="translate(892)">
            <text y="6">96</text>
          </g>
          <g transform="translate(476)">
            <text y="6">103</text>
          </g>
          <g transform="translate(416)">
            <text y="6">104</text>
          </g>
          <g transform="translate(297)">
            <text y="6">106</text>
          </g>
          <g transform="translate(238)">
            <text y="6">107</text>
          </g>
          <g transform="translate(0)">
            <text y="6">111</text>
          </g>
        </g>
        <g transform="translate(30,19)">
          <g transform="translate(684)">
            <text y="6">
              <tspan>hop_offset_3_fra</tspan>
            </text>
          </g>
          <g transform="translate(357)">
            <text y="6">
              <tspan>sequ_burst_3</tspan>
            </text>
          </g>
          <g transform="translate(119)">
            <text y="6">
              <tspan>sram_addr</tspan>
            </text>
          </g>
        </g>
        <g transform="translate(30,47)"/>
      </g>
    </g>
    <g transform="translate(4,21)">
      <g stroke="black" stroke-width="1" stroke-linecap="round">
        <line x2="951"/>
        <line y2="39"/>
        <line x2="951" y1="39" y2="39"/>
        <line x1="951" x2="951" y2="39"/>
        <line x1="892" x2="892" y2="4"/>
        <line x1="892" x2="892" y1="39" y2="35"/>
        <line x1="832" x2="832" y2="4"/>
        <line x1="832" x2="832" y1="39" y2="35"/>
        <line x1="773" x2="773" y2="4"/>
        <line x1="773" x2="773" y1="39" y2="35"/>
        <line x1="713" x2="713" y2="4"/>
        <line x1="713" x2="713" y1="39" y2="35"/>
        <line x1="654" x2="654" y2="4"/>
        <line x1="654" x2="654" y1="39" y2="35"/>
        <line x1="594" x2="594" y2="4"/>
        <line x1="594" x2="594" y1="39" y2="35"/>
        <line x1="535" x2="535" y2="4"/>
        <line x1="535" x2="535" y1="39" y2="35"/>
        <line x1="476" x2="476" y2="4"/>
        <line x1="476" x2="476" y1="39" y2="35"/>
        <line x1="416" x2="416" y2="4"/>
        <line x1="416" x2="416" y1="39" y2="35"/>
        <line x1="357" x2="357" y2="4"/>
        <line x1="357" x2="357" y1="39" y2="35"/>
        <line x1="297" x2="297" y2="4"/>
        <line x1="297" x2="297" y1="39" y2="35"/>
        <line x1="238" x2="238" y2="4"/>
        <line x1="238" x2="238" y1="39" y2="35"/>
        <line x1="178" x2="178" y2="4"/>
        <line x1="178" x2="178" y1="39" y2="35"/>
        <line x1="119" x2="119" y2="4"/>
        <line x1="119" x2="119" y1="39" y2="35"/>
        <line x1="59" x2="59" y2="39"/>
      </g>
      <g>
        <g>
          <rect x="59" width="892" height="39" field="sram_addr" style="fill-opacity:0.1;fill:#ff0010"/>
          <rect width="59" height="39" field="all_done" style="fill-opacity:0.1;fill:#00ff10"/>
        </g>
        <g transform="translate(30,-11)">
          <g transform="translate(892)">
            <text y="6">112</text>
          </g>
          <g transform="translate(59)">
            <text y="6">126</text>
          </g>
          <g transform="translate(0)">
            <text y="6">127</text>
          </g>
        </g>
        <g transform="translate(30,19)">
          <g transform="translate(476)">
            <text y="6">
              <tspan>sram_addr</tspan>
            </text>
          </g>
          <g transform="translate(0)">
            <text y="6">
              <tspan>all_done</tspan>
            </text>
          </g>
        </g>
        <g transform="translate(30,47)"/>
      </g>
    </g>
  </g>
</svg>

